<?xml version="1.0" encoding="utf-8"?>
<!-- Generator: Adobe Illustrator 16.0.3, SVG Export Plug-In . SVG Version: 6.00 Build 0)  -->
<!DOCTYPE svg PUBLIC "-//W3C//DTD SVG 1.1//EN" "http://www.w3.org/Graphics/SVG/1.1/DTD/svg11.dtd">
<svg version="1.1" xmlns="http://www.w3.org/2000/svg" xmlns:xlink="http://www.w3.org/1999/xlink" x="0px" y="0px" width="70px"
	 height="70px" viewBox="0 0 70 70" enable-background="new 0 0 70 70" xml:space="preserve">
<g id="Capa_2">
	<polyline fill-rule="evenodd" clip-rule="evenodd" fill="#507B9C" points="70,70 70,0 0,0 	"/>
</g>
<g id="Capa_1">
	<g>
		
			<ellipse transform="matrix(-0.7071 -0.7071 0.7071 -0.7071 68.2699 70.2157)" fill-rule="evenodd" clip-rule="evenodd" fill="#121B2E" cx="48.677" cy="20.969" rx="19.743" ry="19.735"/>
		<path fill-rule="evenodd" clip-rule="evenodd" fill="#507B9C" d="M63.421,6.222c-7.964-7.966-20.88-7.969-28.845-0.006
			c-6.372,6.373-7.643,15.91-3.816,23.55c0.59,0.852,1.297,0.671,1.679,0.29c0.343-0.342,1.239-1.263,2.434-2.475
			c-4.884-3.141-2.926-6.792-2.926-6.792c1.009-2.32,0.507-3.709,0.507-3.709c-0.416-2.204,0.976-0.777,0.976-0.777
			c1.345,1.548,0.723,3.695,0.723,3.695c-0.916,3.49,1.81,4.944,2.999,5.397c1.063-0.801,2.072-1.065,2.845-1.011
			c-2.838-3.568-4.969-8.173,0.557-13.699c1.572-1.574,3.425-2.299,5.354-2.384c0.217-0.515,1.188-2.476,3.958-3.675
			c0,0,1.599,0.824,2.488,5.444c1.469,0.832,2.865,1.906,4.099,3.127c1.22,1.231,2.29,2.625,3.127,4.097
			c4.618,0.89,5.44,2.486,5.44,2.486c-1.196,2.774-3.159,3.744-3.672,3.961c-0.086,1.931-0.813,3.777-2.389,5.351
			c-5.538,5.542-10.131,3.385-13.703,0.527c0.073,0.964-0.347,2.306-1.691,3.651c-1.927,1.926-3.5,3.462-3.974,3.937
			c-0.383,0.386-0.571,1.094,0.299,1.688c7.639,3.817,17.169,2.545,23.539-3.824C71.396,27.106,71.392,14.191,63.421,6.222z"/>
	</g>
</g>
</svg>
