<?xml version="1.0" encoding="utf-8"?>
<!-- Generator: Adobe Illustrator 16.0.3, SVG Export Plug-In . SVG Version: 6.00 Build 0)  -->
<!DOCTYPE svg PUBLIC "-//W3C//DTD SVG 1.1//EN" "http://www.w3.org/Graphics/SVG/1.1/DTD/svg11.dtd">
<svg version="1.1" xmlns="http://www.w3.org/2000/svg" xmlns:xlink="http://www.w3.org/1999/xlink" x="0px" y="0px" width="80px"
	 height="80px" viewBox="0 0 80 80" enable-background="new 0 0 80 80" xml:space="preserve">
<g id="Capa_2">
	<polyline fill-rule="evenodd" clip-rule="evenodd" fill="#507B9C" points="80,80 80,0 0,0 	"/>
</g>
<g id="Capa_1">
	<g>
		
			<ellipse transform="matrix(-0.7071 -0.7071 0.7071 -0.7071 77.812 80.7454)" fill-rule="evenodd" clip-rule="evenodd" fill="#121B2E" cx="55.629" cy="24.257" rx="22.158" ry="22.148"/>
		<path fill-rule="evenodd" clip-rule="evenodd" fill="#507B9C" d="M72.176,7.708c-8.938-8.94-23.434-8.944-32.373-0.007
			c-7.151,7.152-8.578,17.855-4.283,26.431c0.663,0.956,1.456,0.753,1.885,0.325c0.385-0.384,1.39-1.417,2.731-2.777
			c-5.481-3.525-3.283-7.623-3.283-7.623c1.132-2.604,0.569-4.163,0.569-4.163c-0.467-2.473,1.095-0.873,1.095-0.873
			c1.51,1.737,0.812,4.147,0.812,4.147c-1.027,3.917,2.031,5.548,3.365,6.057c1.193-0.899,2.326-1.195,3.192-1.135
			c-3.185-4.004-5.577-9.172,0.625-15.374c1.765-1.766,3.844-2.581,6.01-2.675c0.243-0.578,1.332-2.778,4.441-4.125
			c0,0,1.794,0.925,2.793,6.11c1.648,0.934,3.216,2.139,4.6,3.51c1.369,1.382,2.57,2.945,3.51,4.598
			c5.183,0.998,6.105,2.79,6.105,2.79c-1.343,3.113-3.546,4.202-4.121,4.446c-0.096,2.167-0.913,4.239-2.681,6.006
			c-6.215,6.219-11.37,3.799-15.379,0.592c0.082,1.082-0.389,2.588-1.898,4.098c-2.162,2.162-3.928,3.885-4.459,4.418
			c-0.43,0.432-0.642,1.227,0.335,1.895c8.573,4.283,19.269,2.855,26.418-4.292C81.126,31.146,81.121,16.651,72.176,7.708z"/>
	</g>
</g>
</svg>
